STARTFONT 2.1
FONT -thai-dbthaitext-bold-r-normal--19-140-100-100-p-59-tis620-0
SIZE 14 100 100
FONTBOUNDINGBOX 25 22 -6 -8
STARTPROPERTIES 25
FOUNDRY "thai"
FAMILY_NAME "dbthaitext"
WEIGHT_NAME "bold"
SLANT "r"
SETWIDTH_NAME "normal"
ADD_STYLE_NAME ""
PIXEL_SIZE 19
POINT_SIZE 140
RESOLUTION_X 100
RESOLUTION_Y 100
SPACING "p"
AVERAGE_WIDTH 59
CHARSET_REGISTRY "tis620"
CHARSET_ENCODING "0"
FONT "-thai-dbthaitext-bold-r-normal--19-140-100-100-p-59-tis620-0"
COPYRIGHT "Typeface (c) The Monotype Corporation plc. Data (c) The Monotype Corporation plc/Type Solutions Inc. 1990-1992. All Rights Reserved"
RAW_PIXELSIZE 1000
RAW_POINTSIZE 723
RAW_ASCENT 738
RAW_DESCENT 408
RAW_AVERAGE_WIDTH 3023
FACE_NAME "DBThaiTextBoldne5"
DEFAULT_CHAR 0
FONT_ASCENT 14
FONT_DESCENT 8
ENDPROPERTIES
CHARS 190
STARTCHAR space
ENCODING 32
SWIDTH 257 0
DWIDTH 5 0
BBX 0 0 0 0
BITMAP
ENDCHAR
STARTCHAR exclam
ENCODING 33
SWIDTH 205 0
DWIDTH 4 0
BBX 1 8 2 0
BITMAP
80
80
80
80
80
80
00
80
ENDCHAR
STARTCHAR quotedbl
ENCODING 34
SWIDTH 257 0
DWIDTH 5 0
BBX 3 3 1 5
BITMAP
a0
a0
a0
ENDCHAR
STARTCHAR numbersign
ENCODING 35
SWIDTH 308 0
DWIDTH 6 0
BBX 6 8 0 0
BITMAP
2c
28
28
fc
68
fc
50
50
ENDCHAR
STARTCHAR dollar
ENCODING 36
SWIDTH 308 0
DWIDTH 6 0
BBX 6 9 0 -1
BITMAP
38
7c
d0
70
18
1c
dc
78
10
ENDCHAR
STARTCHAR percent
ENCODING 37
SWIDTH 514 0
DWIDTH 10 0
BBX 9 8 0 0
BITMAP
6200
9200
9400
6800
0b00
1480
1480
2300
ENDCHAR
STARTCHAR ampersand
ENCODING 38
SWIDTH 411 0
DWIDTH 8 0
BBX 7 8 1 0
BITMAP
30
58
78
30
74
9c
cc
76
ENDCHAR
STARTCHAR apostrophe
ENCODING 39
SWIDTH 154 0
DWIDTH 3 0
BBX 1 3 1 5
BITMAP
80
80
80
ENDCHAR
STARTCHAR parenleft
ENCODING 40
SWIDTH 205 0
DWIDTH 4 0
BBX 3 10 0 -2
BITMAP
20
40
c0
c0
80
c0
c0
c0
40
60
ENDCHAR
STARTCHAR parenright
ENCODING 41
SWIDTH 205 0
DWIDTH 4 0
BBX 3 10 0 -2
BITMAP
40
40
60
20
20
20
20
60
40
40
ENDCHAR
STARTCHAR asterisk
ENCODING 42
SWIDTH 205 0
DWIDTH 4 0
BBX 4 4 0 4
BITMAP
20
f0
60
50
ENDCHAR
STARTCHAR plus
ENCODING 43
SWIDTH 308 0
DWIDTH 6 0
BBX 5 5 1 0
BITMAP
20
20
f8
20
20
ENDCHAR
STARTCHAR comma
ENCODING 44
SWIDTH 205 0
DWIDTH 4 0
BBX 1 3 2 -1
BITMAP
80
80
80
ENDCHAR
STARTCHAR minus
ENCODING 45
SWIDTH 205 0
DWIDTH 4 0
BBX 3 1 0 3
BITMAP
e0
ENDCHAR
STARTCHAR period
ENCODING 46
SWIDTH 154 0
DWIDTH 3 0
BBX 1 2 1 0
BITMAP
80
80
ENDCHAR
STARTCHAR slash
ENCODING 47
SWIDTH 154 0
DWIDTH 3 0
BBX 3 8 0 0
BITMAP
20
20
20
40
40
40
80
80
ENDCHAR
STARTCHAR 0
ENCODING 48
SWIDTH 308 0
DWIDTH 6 0
BBX 4 8 1 0
BITMAP
60
f0
90
90
90
90
90
60
ENDCHAR
STARTCHAR 1
ENCODING 49
SWIDTH 308 0
DWIDTH 6 0
BBX 3 8 1 0
BITMAP
20
e0
e0
20
20
20
20
20
ENDCHAR
STARTCHAR 2
ENCODING 50
SWIDTH 308 0
DWIDTH 6 0
BBX 5 8 0 0
BITMAP
70
d8
c8
18
30
60
c0
f8
ENDCHAR
STARTCHAR 3
ENCODING 51
SWIDTH 308 0
DWIDTH 6 0
BBX 5 8 1 0
BITMAP
70
d8
c8
30
38
08
98
70
ENDCHAR
STARTCHAR 4
ENCODING 52
SWIDTH 308 0
DWIDTH 6 0
BBX 6 8 0 0
BITMAP
18
38
28
68
48
fc
08
08
ENDCHAR
STARTCHAR 5
ENCODING 53
SWIDTH 308 0
DWIDTH 6 0
BBX 5 8 0 0
BITMAP
78
40
40
78
48
08
c8
70
ENDCHAR
STARTCHAR 6
ENCODING 54
SWIDTH 308 0
DWIDTH 6 0
BBX 5 8 0 0
BITMAP
30
48
40
f0
c8
c8
48
70
ENDCHAR
STARTCHAR 7
ENCODING 55
SWIDTH 308 0
DWIDTH 6 0
BBX 5 8 1 0
BITMAP
f8
18
10
10
20
20
40
60
ENDCHAR
STARTCHAR 8
ENCODING 56
SWIDTH 308 0
DWIDTH 6 0
BBX 5 8 1 0
BITMAP
70
90
90
70
f0
98
98
70
ENDCHAR
STARTCHAR 9
ENCODING 57
SWIDTH 308 0
DWIDTH 6 0
BBX 6 8 0 0
BITMAP
70
d8
8c
cc
7c
0c
c8
78
ENDCHAR
STARTCHAR colon
ENCODING 58
SWIDTH 154 0
DWIDTH 3 0
BBX 1 6 1 0
BITMAP
80
00
00
00
80
80
ENDCHAR
STARTCHAR semicolon
ENCODING 59
SWIDTH 205 0
DWIDTH 4 0
BBX 1 7 2 -1
BITMAP
80
80
00
00
80
80
80
ENDCHAR
STARTCHAR less
ENCODING 60
SWIDTH 308 0
DWIDTH 6 0
BBX 5 5 1 0
BITMAP
18
70
c0
70
08
ENDCHAR
STARTCHAR equal
ENCODING 61
SWIDTH 308 0
DWIDTH 6 0
BBX 5 3 1 1
BITMAP
f8
00
f8
ENDCHAR
STARTCHAR greater
ENCODING 62
SWIDTH 308 0
DWIDTH 6 0
BBX 5 5 1 0
BITMAP
c0
70
18
70
80
ENDCHAR
STARTCHAR question
ENCODING 63
SWIDTH 360 0
DWIDTH 7 0
BBX 5 8 1 0
BITMAP
f0
c8
88
18
30
20
00
20
ENDCHAR
STARTCHAR at
ENCODING 64
SWIDTH 565 0
DWIDTH 11 0
BBX 10 10 0 -2
BITMAP
1f00
2080
4540
cb40
9240
9240
df80
4000
3100
1f00
ENDCHAR
STARTCHAR A
ENCODING 65
SWIDTH 411 0
DWIDTH 8 0
BBX 7 8 1 0
BITMAP
10
38
28
68
64
7c
c4
c2
ENDCHAR
STARTCHAR B
ENCODING 66
SWIDTH 411 0
DWIDTH 8 0
BBX 6 8 1 0
BITMAP
f8
8c
8c
f8
8c
84
8c
f8
ENDCHAR
STARTCHAR C
ENCODING 67
SWIDTH 411 0
DWIDTH 8 0
BBX 7 8 1 0
BITMAP
3c
66
c6
c0
c0
c6
66
7c
ENDCHAR
STARTCHAR D
ENCODING 68
SWIDTH 411 0
DWIDTH 8 0
BBX 6 8 1 0
BITMAP
f8
88
84
84
84
84
88
f8
ENDCHAR
STARTCHAR E
ENCODING 69
SWIDTH 360 0
DWIDTH 7 0
BBX 6 8 1 0
BITMAP
fc
80
80
f8
80
80
80
fc
ENDCHAR
STARTCHAR F
ENCODING 70
SWIDTH 360 0
DWIDTH 7 0
BBX 5 8 1 0
BITMAP
f8
80
80
f8
80
80
80
80
ENDCHAR
STARTCHAR G
ENCODING 71
SWIDTH 462 0
DWIDTH 9 0
BBX 7 8 1 0
BITMAP
78
46
82
80
8e
82
46
3a
ENDCHAR
STARTCHAR H
ENCODING 72
SWIDTH 411 0
DWIDTH 8 0
BBX 6 8 1 0
BITMAP
84
84
84
fc
84
84
84
84
ENDCHAR
STARTCHAR I
ENCODING 73
SWIDTH 154 0
DWIDTH 3 0
BBX 1 8 1 0
BITMAP
80
80
80
80
80
80
80
80
ENDCHAR
STARTCHAR J
ENCODING 74
SWIDTH 308 0
DWIDTH 6 0
BBX 4 8 1 0
BITMAP
10
10
10
10
10
90
90
60
ENDCHAR
STARTCHAR K
ENCODING 75
SWIDTH 411 0
DWIDTH 8 0
BBX 7 8 1 0
BITMAP
8c
9c
b0
e0
f0
98
8c
86
ENDCHAR
STARTCHAR L
ENCODING 76
SWIDTH 360 0
DWIDTH 7 0
BBX 5 8 1 0
BITMAP
80
80
80
80
80
80
80
f8
ENDCHAR
STARTCHAR M
ENCODING 77
SWIDTH 462 0
DWIDTH 9 0
BBX 7 8 1 0
BITMAP
c6
e6
e6
aa
aa
aa
ba
9a
ENDCHAR
STARTCHAR N
ENCODING 78
SWIDTH 411 0
DWIDTH 8 0
BBX 6 8 1 0
BITMAP
84
c4
e4
b4
94
9c
8c
84
ENDCHAR
STARTCHAR O
ENCODING 79
SWIDTH 462 0
DWIDTH 9 0
BBX 7 8 1 0
BITMAP
38
4c
86
82
82
86
4c
38
ENDCHAR
STARTCHAR P
ENCODING 80
SWIDTH 360 0
DWIDTH 7 0
BBX 6 8 1 0
BITMAP
f8
8c
8c
8c
f8
80
80
80
ENDCHAR
STARTCHAR Q
ENCODING 81
SWIDTH 462 0
DWIDTH 9 0
BBX 7 9 1 -1
BITMAP
38
4c
86
82
82
8e
4e
3e
02
ENDCHAR
STARTCHAR R
ENCODING 82
SWIDTH 411 0
DWIDTH 8 0
BBX 6 8 1 0
BITMAP
fc
84
84
8c
f8
84
84
84
ENDCHAR
STARTCHAR S
ENCODING 83
SWIDTH 360 0
DWIDTH 7 0
BBX 7 8 0 0
BITMAP
7c
ce
c0
78
1e
06
c6
7c
ENDCHAR
STARTCHAR T
ENCODING 84
SWIDTH 360 0
DWIDTH 7 0
BBX 7 8 0 0
BITMAP
fe
10
10
10
10
10
10
10
ENDCHAR
STARTCHAR U
ENCODING 85
SWIDTH 411 0
DWIDTH 8 0
BBX 6 8 1 0
BITMAP
84
84
84
84
84
84
cc
78
ENDCHAR
STARTCHAR V
ENCODING 86
SWIDTH 360 0
DWIDTH 7 0
BBX 7 8 0 0
BITMAP
c6
46
44
6c
2c
28
38
10
ENDCHAR
STARTCHAR W
ENCODING 87
SWIDTH 514 0
DWIDTH 10 0
BBX 10 8 0 0
BITMAP
ccc0
ccc0
4c80
5e80
7380
3380
3300
3300
ENDCHAR
STARTCHAR X
ENCODING 88
SWIDTH 360 0
DWIDTH 7 0
BBX 7 8 0 0
BITMAP
c6
6c
3c
38
38
68
6c
c6
ENDCHAR
STARTCHAR Y
ENCODING 89
SWIDTH 360 0
DWIDTH 7 0
BBX 7 8 0 0
BITMAP
46
66
2c
38
10
10
10
10
ENDCHAR
STARTCHAR Z
ENCODING 90
SWIDTH 360 0
DWIDTH 7 0
BBX 6 8 0 0
BITMAP
fc
0c
18
10
30
60
c0
fc
ENDCHAR
STARTCHAR bracketleft
ENCODING 91
SWIDTH 205 0
DWIDTH 4 0
BBX 2 10 1 -2
BITMAP
c0
80
80
80
80
80
80
80
80
c0
ENDCHAR
STARTCHAR backslash
ENCODING 92
SWIDTH 154 0
DWIDTH 3 0
BBX 3 8 0 0
BITMAP
80
80
40
40
40
20
20
20
ENDCHAR
STARTCHAR bracketright
ENCODING 93
SWIDTH 205 0
DWIDTH 4 0
BBX 3 10 0 -2
BITMAP
e0
20
20
20
20
20
20
20
20
e0
ENDCHAR
STARTCHAR asciicircum
ENCODING 94
SWIDTH 308 0
DWIDTH 6 0
BBX 5 5 1 3
BITMAP
20
70
50
50
88
ENDCHAR
STARTCHAR underscore
ENCODING 95
SWIDTH 308 0
DWIDTH 6 0
BBX 7 1 0 -2
BITMAP
fe
ENDCHAR
STARTCHAR grave
ENCODING 96
SWIDTH 154 0
DWIDTH 3 0
BBX 3 3 0 2
BITMAP
40
e0
e0
ENDCHAR
STARTCHAR a
ENCODING 97
SWIDTH 308 0
DWIDTH 6 0
BBX 6 6 1 0
BITMAP
70
88
38
d8
98
f4
ENDCHAR
STARTCHAR b
ENCODING 98
SWIDTH 360 0
DWIDTH 7 0
BBX 5 8 1 0
BITMAP
80
80
b0
d8
88
88
d8
f0
ENDCHAR
STARTCHAR c
ENCODING 99
SWIDTH 308 0
DWIDTH 6 0
BBX 5 6 1 0
BITMAP
70
c8
80
80
d8
70
ENDCHAR
STARTCHAR d
ENCODING 100
SWIDTH 360 0
DWIDTH 7 0
BBX 7 8 0 0
BITMAP
04
04
7c
6c
c4
c4
4c
72
ENDCHAR
STARTCHAR e
ENCODING 101
SWIDTH 308 0
DWIDTH 6 0
BBX 6 6 0 0
BITMAP
78
cc
fc
c0
cc
78
ENDCHAR
STARTCHAR f
ENCODING 102
SWIDTH 205 0
DWIDTH 4 0
BBX 3 8 0 0
BITMAP
60
40
e0
40
40
40
40
40
ENDCHAR
STARTCHAR g
ENCODING 103
SWIDTH 360 0
DWIDTH 7 0
BBX 6 8 0 -2
BITMAP
34
6c
c4
c4
4c
34
04
78
ENDCHAR
STARTCHAR h
ENCODING 104
SWIDTH 360 0
DWIDTH 7 0
BBX 5 8 1 0
BITMAP
80
80
b8
d8
88
88
88
88
ENDCHAR
STARTCHAR i
ENCODING 105
SWIDTH 154 0
DWIDTH 3 0
BBX 1 8 1 0
BITMAP
80
00
80
80
80
80
80
80
ENDCHAR
STARTCHAR j
ENCODING 106
SWIDTH 154 0
DWIDTH 3 0
BBX 2 10 0 -2
BITMAP
40
00
40
40
40
40
40
40
40
c0
ENDCHAR
STARTCHAR k
ENCODING 107
SWIDTH 308 0
DWIDTH 6 0
BBX 5 8 1 0
BITMAP
80
80
90
b0
e0
f0
b0
98
ENDCHAR
STARTCHAR l
ENCODING 108
SWIDTH 154 0
DWIDTH 3 0
BBX 1 8 1 0
BITMAP
80
80
80
80
80
80
80
80
ENDCHAR
STARTCHAR m
ENCODING 109
SWIDTH 514 0
DWIDTH 10 0
BBX 8 6 1 0
BITMAP
b7
d9
91
91
91
91
ENDCHAR
STARTCHAR n
ENCODING 110
SWIDTH 360 0
DWIDTH 7 0
BBX 5 6 1 0
BITMAP
b0
d8
88
88
88
88
ENDCHAR
STARTCHAR o
ENCODING 111
SWIDTH 360 0
DWIDTH 7 0
BBX 5 6 1 0
BITMAP
70
d8
88
88
d8
70
ENDCHAR
STARTCHAR p
ENCODING 112
SWIDTH 360 0
DWIDTH 7 0
BBX 5 8 1 -2
BITMAP
b0
d8
88
88
d8
f8
80
80
ENDCHAR
STARTCHAR q
ENCODING 113
SWIDTH 360 0
DWIDTH 7 0
BBX 5 8 1 -2
BITMAP
78
d8
88
88
98
78
08
08
ENDCHAR
STARTCHAR r
ENCODING 114
SWIDTH 205 0
DWIDTH 4 0
BBX 4 6 1 0
BITMAP
a0
d0
80
80
80
80
ENDCHAR
STARTCHAR s
ENCODING 115
SWIDTH 308 0
DWIDTH 6 0
BBX 5 6 1 0
BITMAP
70
88
e0
38
88
70
ENDCHAR
STARTCHAR t
ENCODING 116
SWIDTH 205 0
DWIDTH 4 0
BBX 3 7 0 0
BITMAP
40
e0
40
40
40
40
60
ENDCHAR
STARTCHAR u
ENCODING 117
SWIDTH 360 0
DWIDTH 7 0
BBX 6 6 1 0
BITMAP
88
88
88
88
98
e4
ENDCHAR
STARTCHAR v
ENCODING 118
SWIDTH 308 0
DWIDTH 6 0
BBX 6 6 0 0
BITMAP
cc
4c
48
78
38
30
ENDCHAR
STARTCHAR w
ENCODING 119
SWIDTH 462 0
DWIDTH 9 0
BBX 8 6 0 0
BITMAP
9b
db
5a
5e
66
24
ENDCHAR
STARTCHAR x
ENCODING 120
SWIDTH 308 0
DWIDTH 6 0
BBX 6 6 0 0
BITMAP
cc
78
30
30
78
cc
ENDCHAR
STARTCHAR y
ENCODING 121
SWIDTH 308 0
DWIDTH 6 0
BBX 6 8 0 -2
BITMAP
cc
4c
68
78
38
30
30
60
ENDCHAR
STARTCHAR z
ENCODING 122
SWIDTH 308 0
DWIDTH 6 0
BBX 5 6 0 0
BITMAP
f8
18
30
60
40
f8
ENDCHAR
STARTCHAR braceleft
ENCODING 123
SWIDTH 205 0
DWIDTH 4 0
BBX 3 10 0 -2
BITMAP
60
40
40
40
40
c0
40
40
40
60
ENDCHAR
STARTCHAR bar
ENCODING 124
SWIDTH 154 0
DWIDTH 3 0
BBX 1 10 1 -2
BITMAP
80
80
80
80
80
80
80
80
80
80
ENDCHAR
STARTCHAR braceright
ENCODING 125
SWIDTH 205 0
DWIDTH 4 0
BBX 3 10 1 -2
BITMAP
c0
40
40
40
60
60
40
40
40
c0
ENDCHAR
STARTCHAR asciitilde
ENCODING 126
SWIDTH 308 0
DWIDTH 6 0
BBX 5 2 1 2
BITMAP
40
b8
ENDCHAR
STARTCHAR exclamdown
ENCODING 161
SWIDTH 360 0
DWIDTH 7 0
BBX 5 7 1 0
BITMAP
70
88
c8
88
88
88
88
ENDCHAR
STARTCHAR cent
ENCODING 162
SWIDTH 360 0
DWIDTH 7 0
BBX 6 7 0 0
BITMAP
74
ac
6c
14
14
14
3c
ENDCHAR
STARTCHAR sterling
ENCODING 163
SWIDTH 411 0
DWIDTH 8 0
BBX 7 7 0 0
BITMAP
72
9a
fa
72
12
12
3e
ENDCHAR
STARTCHAR currency
ENCODING 164
SWIDTH 360 0
DWIDTH 7 0
BBX 6 7 0 0
BITMAP
38
44
d4
7c
74
24
24
ENDCHAR
STARTCHAR yen
ENCODING 165
SWIDTH 360 0
DWIDTH 7 0
BBX 6 7 0 0
BITMAP
28
54
d4
7c
74
24
24
ENDCHAR
STARTCHAR brokenbar
ENCODING 166
SWIDTH 462 0
DWIDTH 9 0
BBX 8 7 0 0
BITMAP
31
59
f9
71
3d
33
31
ENDCHAR
STARTCHAR section
ENCODING 167
SWIDTH 308 0
DWIDTH 6 0
BBX 5 7 0 0
BITMAP
10
28
78
48
48
28
38
ENDCHAR
STARTCHAR diaeresis
ENCODING 168
SWIDTH 360 0
DWIDTH 7 0
BBX 6 7 0 0
BITMAP
38
4c
24
54
74
14
0c
ENDCHAR
STARTCHAR copyright
ENCODING 169
SWIDTH 411 0
DWIDTH 8 0
BBX 8 7 0 0
BITMAP
38
64
04
e4
6e
35
26
ENDCHAR
STARTCHAR ordfeminine
ENCODING 170
SWIDTH 360 0
DWIDTH 7 0
BBX 7 7 0 0
BITMAP
76
a8
74
14
14
14
3c
ENDCHAR
STARTCHAR guillemotleft
ENCODING 171
SWIDTH 411 0
DWIDTH 8 0
BBX 8 7 0 0
BITMAP
71
9e
ee
f2
12
12
3e
ENDCHAR
STARTCHAR notsign
ENCODING 172
SWIDTH 462 0
DWIDTH 9 0
BBX 7 7 1 0
BITMAP
72
9a
4a
8a
8a
fe
da
ENDCHAR
STARTCHAR hyphen
ENCODING 173
SWIDTH 462 0
DWIDTH 9 0
BBX 7 10 1 -3
BITMAP
72
9a
4a
8a
8a
ea
de
0a
16
1c
ENDCHAR
STARTCHAR registered
ENCODING 174
SWIDTH 411 0
DWIDTH 8 0
BBX 7 10 0 -3
BITMAP
1c
66
32
22
22
e2
62
7a
5e
76
ENDCHAR
STARTCHAR macron
ENCODING 175
SWIDTH 411 0
DWIDTH 8 0
BBX 7 10 0 -3
BITMAP
1c
66
32
22
22
e2
62
12
76
6e
ENDCHAR
STARTCHAR degree
ENCODING 176
SWIDTH 308 0
DWIDTH 6 0
BBX 6 11 0 -4
BITMAP
30
e8
18
68
78
18
08
18
58
d8
b0
ENDCHAR
STARTCHAR plusminus
ENCODING 177
SWIDTH 462 0
DWIDTH 9 0
BBX 8 7 0 0
BITMAP
72
9f
f5
fd
19
19
11
ENDCHAR
STARTCHAR twosuperior
ENCODING 178
SWIDTH 514 0
DWIDTH 10 0
BBX 9 7 0 0
BITMAP
2880
5480
b480
6c80
5480
6f80
6d80
ENDCHAR
STARTCHAR threesuperior
ENCODING 179
SWIDTH 514 0
DWIDTH 10 0
BBX 9 7 1 0
BITMAP
7200
9a00
4a00
8a00
8f00
ea80
cb00
ENDCHAR
STARTCHAR acute
ENCODING 180
SWIDTH 360 0
DWIDTH 7 0
BBX 6 7 0 0
BITMAP
38
cc
b4
ac
d4
64
64
ENDCHAR
STARTCHAR mu
ENCODING 181
SWIDTH 360 0
DWIDTH 7 0
BBX 6 7 0 0
BITMAP
28
54
b4
6c
54
64
64
ENDCHAR
STARTCHAR paragraph
ENCODING 182
SWIDTH 360 0
DWIDTH 7 0
BBX 5 7 1 0
BITMAP
70
88
48
88
88
e8
c8
ENDCHAR
STARTCHAR periodcentered
ENCODING 183
SWIDTH 411 0
DWIDTH 8 0
BBX 7 7 0 0
BITMAP
44
aa
6a
32
32
32
22
ENDCHAR
STARTCHAR cedilla
ENCODING 184
SWIDTH 308 0
DWIDTH 6 0
BBX 6 7 0 0
BITMAP
30
48
38
48
48
48
78
ENDCHAR
STARTCHAR onesuperior
ENCODING 185
SWIDTH 411 0
DWIDTH 8 0
BBX 8 7 0 0
BITMAP
44
a4
64
24
2e
35
26
ENDCHAR
STARTCHAR masculine
ENCODING 186
SWIDTH 360 0
DWIDTH 7 0
BBX 6 7 0 0
BITMAP
44
a4
64
24
24
24
7c
ENDCHAR
STARTCHAR guillemotright
ENCODING 187
SWIDTH 360 0
DWIDTH 7 0
BBX 6 9 0 0
BITMAP
04
04
44
a4
64
24
24
24
7c
ENDCHAR
STARTCHAR onequarter
ENCODING 188
SWIDTH 360 0
DWIDTH 7 0
BBX 5 7 1 0
BITMAP
48
a8
c8
a8
f8
c8
88
ENDCHAR
STARTCHAR onehalf
ENCODING 189
SWIDTH 360 0
DWIDTH 7 0
BBX 5 9 1 0
BITMAP
08
08
48
a8
c8
a8
f8
c8
88
ENDCHAR
STARTCHAR threequarters
ENCODING 190
SWIDTH 411 0
DWIDTH 8 0
BBX 7 7 0 0
BITMAP
42
aa
6a
36
36
22
22
ENDCHAR
STARTCHAR questiondown
ENCODING 191
SWIDTH 411 0
DWIDTH 8 0
BBX 7 9 0 0
BITMAP
02
02
42
aa
6a
36
36
22
22
ENDCHAR
STARTCHAR Agrave
ENCODING 192
SWIDTH 411 0
DWIDTH 8 0
BBX 7 7 0 0
BITMAP
1c
66
32
22
22
e2
62
ENDCHAR
STARTCHAR Aacute
ENCODING 193
SWIDTH 360 0
DWIDTH 7 0
BBX 6 7 0 0
BITMAP
44
64
64
24
7c
6c
64
ENDCHAR
STARTCHAR Acircumflex
ENCODING 194
SWIDTH 360 0
DWIDTH 7 0
BBX 5 7 1 0
BITMAP
48
a8
c8
c8
c8
88
f8
ENDCHAR
STARTCHAR Atilde
ENCODING 195
SWIDTH 308 0
DWIDTH 6 0
BBX 7 7 0 0
BITMAP
7e
c4
38
08
08
38
18
ENDCHAR
STARTCHAR Adiaeresis
ENCODING 196
SWIDTH 360 0
DWIDTH 7 0
BBX 5 10 1 -3
BITMAP
70
88
48
88
88
e8
c8
08
08
08
ENDCHAR
STARTCHAR Aring
ENCODING 197
SWIDTH 360 0
DWIDTH 7 0
BBX 5 7 1 0
BITMAP
70
98
48
b8
98
f8
c8
ENDCHAR
STARTCHAR AE
ENCODING 198
SWIDTH 411 0
DWIDTH 8 0
BBX 7 10 0 -3
BITMAP
1c
66
32
22
22
e2
62
02
02
02
ENDCHAR
STARTCHAR Ccedilla
ENCODING 199
SWIDTH 308 0
DWIDTH 6 0
BBX 5 7 0 0
BITMAP
70
88
08
08
08
18
18
ENDCHAR
STARTCHAR Egrave
ENCODING 200
SWIDTH 360 0
DWIDTH 7 0
BBX 7 7 0 0
BITMAP
3a
4c
fc
7c
74
24
24
ENDCHAR
STARTCHAR Eacute
ENCODING 201
SWIDTH 360 0
DWIDTH 7 0
BBX 8 7 0 0
BITMAP
42
a2
6b
37
2e
22
7e
ENDCHAR
STARTCHAR Ecircumflex
ENCODING 202
SWIDTH 360 0
DWIDTH 7 0
BBX 6 7 0 0
BITMAP
7c
c8
3c
dc
9c
ec
6c
ENDCHAR
STARTCHAR Ediaeresis
ENCODING 203
SWIDTH 360 0
DWIDTH 7 0
BBX 7 7 0 0
BITMAP
44
ae
ec
3c
34
24
24
ENDCHAR
STARTCHAR Igrave
ENCODING 204
SWIDTH 411 0
DWIDTH 8 0
BBX 9 8 0 0
BITMAP
0200
4700
aa00
6a00
3600
3600
2200
2200
ENDCHAR
STARTCHAR Iacute
ENCODING 205
SWIDTH 360 0
DWIDTH 7 0
BBX 5 7 1 0
BITMAP
f0
88
48
a8
c8
88
f8
ENDCHAR
STARTCHAR Icircumflex
ENCODING 206
SWIDTH 360 0
DWIDTH 7 0
BBX 6 7 1 0
BITMAP
f4
88
f8
c8
c8
88
f8
ENDCHAR
STARTCHAR Idiaeresis
ENCODING 207
SWIDTH 360 0
DWIDTH 7 0
BBX 5 7 1 0
BITMAP
48
a8
d8
f8
08
08
30
ENDCHAR
STARTCHAR ETH
ENCODING 208
SWIDTH 257 0
DWIDTH 5 0
BBX 4 7 1 0
BITMAP
d0
d0
e0
00
d0
d0
60
ENDCHAR
STARTCHAR Ntilde
ENCODING 209
SWIDTH 0 0
DWIDTH 0 0
BBX 6 3 -4 8
BITMAP
40
ac
f8
ENDCHAR
STARTCHAR Ograve
ENCODING 210
SWIDTH 308 0
DWIDTH 6 0
BBX 5 7 0 0
BITMAP
70
88
08
08
08
08
08
ENDCHAR
STARTCHAR Oacute
ENCODING 211
SWIDTH 308 0
DWIDTH 6 0
BBX 8 11 -3 0
BITMAP
c0
c0
c0
00
0e
11
01
01
01
01
01
ENDCHAR
STARTCHAR Ocircumflex
ENCODING 212
SWIDTH 0 0
DWIDTH 0 0
BBX 5 3 -6 8
BITMAP
20
50
f8
ENDCHAR
STARTCHAR Otilde
ENCODING 213
SWIDTH 51 0
DWIDTH 1 0
BBX 6 3 -6 8
BITMAP
18
68
f8
ENDCHAR
STARTCHAR Odiaeresis
ENCODING 214
SWIDTH 0 0
DWIDTH 0 0
BBX 5 3 -6 8
BITMAP
38
58
f8
ENDCHAR
STARTCHAR multiply
ENCODING 215
SWIDTH 51 0
DWIDTH 1 0
BBX 6 3 -6 8
BITMAP
18
68
f8
ENDCHAR
STARTCHAR Ooblique
ENCODING 216
SWIDTH 0 0
DWIDTH 0 0
BBX 3 4 -4 -5
BITMAP
60
60
20
20
ENDCHAR
STARTCHAR Ugrave
ENCODING 217
SWIDTH 0 0
DWIDTH 0 0
BBX 4 4 -5 -5
BITMAP
d0
d0
50
30
ENDCHAR
STARTCHAR Uacute
ENCODING 218
SWIDTH 0 0
DWIDTH 0 0
BBX 1 1 -2 -2
BITMAP
80
ENDCHAR
STARTCHAR Ucircumflex
ENCODING 219
SWIDTH 0 0
DWIDTH 0 0
BBX 1 1 -2 -5
BITMAP
80
ENDCHAR
STARTCHAR Udiaeresis
ENCODING 220
SWIDTH 0 0
DWIDTH 0 0
BBX 1 1 0 0
BITMAP
00
ENDCHAR
STARTCHAR Yacute
ENCODING 221
SWIDTH 0 0
DWIDTH 0 0
BBX 1 1 0 0
BITMAP
00
ENDCHAR
STARTCHAR THORN
ENCODING 222
SWIDTH 0 0
DWIDTH 0 0
BBX 1 1 0 0
BITMAP
00
ENDCHAR
STARTCHAR ssharp
ENCODING 223
SWIDTH 411 0
DWIDTH 8 0
BBX 6 10 1 -1
BITMAP
20
f8
bc
bc
f8
bc
a4
bc
f8
20
ENDCHAR
STARTCHAR agrave
ENCODING 224
SWIDTH 205 0
DWIDTH 4 0
BBX 3 7 1 0
BITMAP
80
80
80
80
80
e0
c0
ENDCHAR
STARTCHAR aacute
ENCODING 225
SWIDTH 360 0
DWIDTH 7 0
BBX 6 7 1 0
BITMAP
90
90
90
90
90
fc
d8
ENDCHAR
STARTCHAR acircumflex
ENCODING 226
SWIDTH 257 0
DWIDTH 5 0
BBX 5 12 0 0
BITMAP
e8
d0
20
20
20
20
20
20
20
20
30
30
ENDCHAR
STARTCHAR atilde
ENCODING 227
SWIDTH 257 0
DWIDTH 5 0
BBX 5 12 -1 0
BITMAP
70
d0
50
10
10
10
10
10
10
10
18
18
ENDCHAR
STARTCHAR adiaeresis
ENCODING 228
SWIDTH 257 0
DWIDTH 5 0
BBX 5 12 0 0
BITMAP
a0
a0
e0
60
20
20
20
20
20
30
28
38
ENDCHAR
STARTCHAR aring
ENCODING 229
SWIDTH 308 0
DWIDTH 6 0
BBX 5 10 0 -3
BITMAP
70
88
08
08
08
08
08
08
08
08
ENDCHAR
STARTCHAR ae
ENCODING 230
SWIDTH 411 0
DWIDTH 8 0
BBX 5 10 2 -3
BITMAP
50
b8
c8
e8
08
08
08
08
38
20
ENDCHAR
STARTCHAR ccedilla
ENCODING 231
SWIDTH 0 0
DWIDTH 0 0
BBX 5 4 -6 8
BITMAP
08
78
d8
f8
ENDCHAR
STARTCHAR egrave
ENCODING 232
SWIDTH 0 0
DWIDTH 0 0
BBX 1 2 -2 12
BITMAP
80
80
ENDCHAR
STARTCHAR eacute
ENCODING 233
SWIDTH 0 0
DWIDTH 0 0
BBX 4 3 -4 11
BITMAP
d0
e0
40
ENDCHAR
STARTCHAR ecircumflex
ENCODING 234
SWIDTH 0 0
DWIDTH 0 0
BBX 5 3 -5 11
BITMAP
f8
d8
40
ENDCHAR
STARTCHAR ediaeresis
ENCODING 235
SWIDTH 0 0
DWIDTH 0 0
BBX 3 2 -3 12
BITMAP
40
e0
ENDCHAR
STARTCHAR igrave
ENCODING 236
SWIDTH 0 0
DWIDTH 0 0
BBX 4 3 -4 11
BITMAP
70
c0
c0
ENDCHAR
STARTCHAR iacute
ENCODING 237
SWIDTH 0 0
DWIDTH 0 0
BBX 3 3 -4 8
BITMAP
e0
a0
e0
ENDCHAR
STARTCHAR icircumflex
ENCODING 238
SWIDTH 0 0
DWIDTH 0 0
BBX 3 3 -4 9
BITMAP
e0
a0
e0
ENDCHAR
STARTCHAR idiaeresis
ENCODING 239
SWIDTH 360 0
DWIDTH 7 0
BBX 7 7 0 0
BITMAP
38
4c
be
ba
ba
fe
38
ENDCHAR
STARTCHAR eth
ENCODING 240
SWIDTH 360 0
DWIDTH 7 0
BBX 6 5 0 0
BITMAP
78
cc
cc
cc
78
ENDCHAR
STARTCHAR ntilde
ENCODING 241
SWIDTH 360 0
DWIDTH 7 0
BBX 5 6 1 -1
BITMAP
70
88
f8
f8
68
08
ENDCHAR
STARTCHAR ograve
ENCODING 242
SWIDTH 411 0
DWIDTH 8 0
BBX 7 7 0 0
BITMAP
40
40
5e
7e
6a
5a
7e
ENDCHAR
STARTCHAR oacute
ENCODING 243
SWIDTH 411 0
DWIDTH 8 0
BBX 6 5 1 0
BITMAP
68
94
d4
b4
d4
ENDCHAR
STARTCHAR ocircumflex
ENCODING 244
SWIDTH 411 0
DWIDTH 8 0
BBX 8 8 0 0
BITMAP
01
01
03
7e
d0
b8
f8
7e
ENDCHAR
STARTCHAR otilde
ENCODING 245
SWIDTH 411 0
DWIDTH 8 0
BBX 8 8 0 0
BITMAP
01
13
3b
7e
d0
e8
f8
7e
ENDCHAR
STARTCHAR odiaeresis
ENCODING 246
SWIDTH 308 0
DWIDTH 6 0
BBX 6 8 0 0
BITMAP
40
c0
40
78
0c
64
5c
38
ENDCHAR
STARTCHAR division
ENCODING 247
SWIDTH 411 0
DWIDTH 8 0
BBX 8 7 0 0
BITMAP
01
01
29
55
c5
67
64
ENDCHAR
STARTCHAR oslash
ENCODING 248
SWIDTH 411 0
DWIDTH 8 0
BBX 7 7 1 0
BITMAP
02
02
7e
c4
ac
fe
5c
ENDCHAR
STARTCHAR ugrave
ENCODING 249
SWIDTH 360 0
DWIDTH 7 0
BBX 6 7 1 0
BITMAP
04
04
6c
d4
a8
d8
64
ENDCHAR
STARTCHAR uacute
ENCODING 250
SWIDTH 977 0
DWIDTH 19 0
BBX 19 1 0 3
BITMAP
ffffe0
ENDCHAR
STARTCHAR ucircumflex
ENCODING 251
SWIDTH 514 0
DWIDTH 10 0
BBX 10 1 0 3
BITMAP
ffc0
ENDCHAR
STARTCHAR udiaeresis
ENCODING 252
SWIDTH 0 0
DWIDTH 0 0
BBX 3 4 -4 -8
BITMAP
60
60
20
20
ENDCHAR
STARTCHAR yacute
ENCODING 253
SWIDTH 0 0
DWIDTH 0 0
BBX 4 4 -5 -8
BITMAP
d0
d0
50
30
ENDCHAR
STARTCHAR thorn
ENCODING 254
SWIDTH 411 0
DWIDTH 8 0
BBX 8 8 0 0
BITMAP
1c
62
5d
95
99
55
43
3c
ENDCHAR
STARTCHAR ydiaeresis
ENCODING 255
SWIDTH 0 0
DWIDTH 0 0
BBX 1 1 0 0
BITMAP
00
ENDCHAR
ENDFONT
